<?xml version="1.0" encoding="UTF-8"?>
<svg version="1.1" xmlns="http://www.w3.org/2000/svg" width="200" height="170">
<path d="M0 0 C10.63886764 -0.55776588 10.63886764 -0.55776588 15 3 C15.66128906 3.4640625 16.32257813 3.928125 17.00390625 4.40625 C22.16520156 8.32107864 24.00312348 11.48150596 25.0390625 17.86328125 C25 20 25 20 23 22 C20.375 21.625 20.375 21.625 18 21 C17.896875 21.515625 17.79375 22.03125 17.6875 22.5625 C16.75736134 25.86026435 15.38604488 28.86633332 14 32 C12.515 31.505 12.515 31.505 11 31 C10.67 31.99 10.34 32.98 10 34 C9.34 34 8.68 34 8 34 C7.67 34.99 7.34 35.98 7 37 C4.9375 37.6875 4.9375 37.6875 3 38 C3.31066406 39.0003125 3.62132812 40.000625 3.94140625 41.03125 C5.0265696 44.82598128 5.51158169 48.57343879 5.9375 52.5 C6.61996672 57.94898628 7.47235839 62.15535358 10 67 C10.67276716 68.6642135 11.34206835 70.32986582 12 72 C12.60328125 72.06058594 13.2065625 72.12117188 13.828125 72.18359375 C14.62734375 72.26738281 15.4265625 72.35117188 16.25 72.4375 C17.43335937 72.55931641 17.43335937 72.55931641 18.640625 72.68359375 C21 73 21 73 23.15234375 73.578125 C25.08922927 74.1795183 25.08922927 74.1795183 27.3125 73.3125 C30.83497228 72.9029102 32.59351711 73.90752905 35.55078125 75.7421875 C37 77 37 77 37.9375 79.75 C37.958125 80.4925 37.97875 81.235 38 82 C38.66 82 39.32 82 40 82 C40.39316406 80.741875 40.78632813 79.48375 41.19140625 78.1875 C43.05615507 72.60528418 45.43349608 67.32054325 47.9375 62 C48.36740234 61.04738281 48.79730469 60.09476563 49.24023438 59.11328125 C49.87735352 57.75783203 49.87735352 57.75783203 50.52734375 56.375 C51.09569946 55.14910156 51.09569946 55.14910156 51.67553711 53.8984375 C53 52 53 52 54.97973633 51.19165039 C57.81269275 50.92290468 60.03341542 51.62899269 62.75 52.4375 C63.73484375 52.72496094 64.7196875 53.01242188 65.734375 53.30859375 C66.48203125 53.53675781 67.2296875 53.76492187 68 54 C69.21789915 56.88824939 68.99469732 58.01485183 67.92016602 61.02441406 C67.37030029 62.17651367 66.82043457 63.32861328 66.25390625 64.515625 C65.96394272 65.13145447 65.67397919 65.74728394 65.37522888 66.3817749 C64.44857626 68.34325576 63.50585593 70.29650613 62.5625 72.25 C61.93056516 73.58021879 61.29969289 74.91094292 60.66992188 76.2421875 C59.12745001 79.50190406 57.56348787 82.7499818 56 86 C61.61 86 67.22 86 73 86 C72.505 87.98 72.505 87.98 72 90 C68.79748986 91.60125507 65.31965781 91.13824142 61.80249023 91.12939453 C60.53162064 91.13202301 60.53162064 91.13202301 59.2350769 91.13470459 C56.42622853 91.13911665 53.61744279 91.13618763 50.80859375 91.1328125 C48.86328621 91.13348566 46.91797876 91.13445579 44.97267151 91.13571167 C40.89298706 91.13718772 36.81332449 91.13503683 32.73364258 91.13037109 C27.49197114 91.12467008 22.25035086 91.12795576 17.0086813 91.13394356 C12.99139517 91.13754845 8.97412128 91.13641098 4.95683479 91.13381577 C3.02343807 91.13314649 1.09004026 91.13397492 -0.84335518 91.13629532 C-3.53956186 91.13882108 -6.23568439 91.13498251 -8.93188477 91.12939453 C-9.73866165 91.13141876 -10.54543854 91.13344299 -11.37666321 91.13552856 C-16.88573671 91.11426329 -16.88573671 91.11426329 -18 90 C-20.51880517 89.84011509 -23.01342266 89.74065775 -25.53515625 89.68359375 C-26.66503212 89.6524221 -26.66503212 89.6524221 -27.81773376 89.62062073 C-30.2325599 89.55504575 -32.64749798 89.49620379 -35.0625 89.4375 C-36.69597529 89.3943223 -38.3294391 89.35070827 -39.96289062 89.30664062 C-43.97514464 89.19935638 -47.98751164 89.09811179 -52 89 C-52 88.34 -52 87.68 -52 87 C-49.03 86.505 -49.03 86.505 -46 86 C-44.80160483 79.31718459 -43.79292442 72.62196404 -42.88891602 65.89379883 C-42.50101767 63.00757215 -42.10216547 60.12298555 -41.703125 57.23828125 C-41.29055828 54.23541545 -40.92189912 51.2463265 -40.609375 48.23046875 C-39.7555829 41.00107691 -37.75747842 35.71066417 -32 31 C-28.39893303 29.15080345 -24.90858513 27.68319326 -21.109375 26.2890625 C-18.1661577 25.06888447 -17.15059963 24.16268165 -15 22 C-12.3125 21.3125 -12.3125 21.3125 -10 21 C-9.75765625 20.13117187 -9.5153125 19.26234375 -9.265625 18.3671875 C-5.79232506 6.42437923 -5.79232506 6.42437923 -2 2 C-1.34 2 -0.68 2 0 2 C0 1.34 0 0.68 0 0 Z " fill="#744271" transform="translate(89,17)"/>
<path d="M0 0 C5.16496336 0.65996754 10.26869483 1.79205759 15 4 C14.36198493 8.08924686 13.02839818 11.43405441 11.27734375 15.17578125 C10.73916016 16.33271484 10.20097656 17.48964844 9.64648438 18.68164062 C9.07694064 19.89198249 8.50727769 21.10226826 7.9375 22.3125 C7.36343439 23.54208537 6.7898615 24.77190091 6.21679688 26.00195312 C4.81604326 29.00356801 3.40865812 32.00208657 2 35 C7.61 35 13.22 35 19 35 C18.67 36.32 18.34 37.64 18 39 C14.79748986 40.60125507 11.31965781 40.13824142 7.80249023 40.12939453 C6.95524384 40.13114685 6.10799744 40.13289917 5.2350769 40.13470459 C2.42622853 40.13911665 -0.38255721 40.13618763 -3.19140625 40.1328125 C-5.13671379 40.13348566 -7.08202124 40.13445579 -9.02732849 40.13571167 C-13.10701294 40.13718772 -17.18667551 40.13503683 -21.26635742 40.13037109 C-26.50802886 40.12467008 -31.74964914 40.12795576 -36.9913187 40.13394356 C-41.00860483 40.13754845 -45.02587872 40.13641098 -49.04316521 40.13381577 C-50.97656193 40.13314649 -52.90995974 40.13397492 -54.84335518 40.13629532 C-57.53956186 40.13882108 -60.23568439 40.13498251 -62.93188477 40.12939453 C-63.73866165 40.13141876 -64.54543854 40.13344299 -65.37666321 40.13552856 C-70.88573671 40.11426329 -70.88573671 40.11426329 -72 39 C-74.51880517 38.84011509 -77.01342266 38.74065775 -79.53515625 38.68359375 C-80.28840683 38.66281265 -81.04165741 38.64203156 -81.81773376 38.62062073 C-84.2325599 38.55504575 -86.64749798 38.49620379 -89.0625 38.4375 C-90.69597529 38.3943223 -92.3294391 38.35070827 -93.96289062 38.30664062 C-97.97514464 38.19935638 -101.98751164 38.09811179 -106 38 C-106 37.34 -106 36.68 -106 36 C-100.37427448 35.0142534 -95.04707189 34.9420711 -89.34765625 35.12109375 C-88.44752304 35.14470474 -87.54738983 35.16831573 -86.61997986 35.19264221 C-83.76730384 35.26873154 -80.91493768 35.35298868 -78.0625 35.4375 C-76.11915539 35.49077559 -74.17579601 35.54351554 -72.23242188 35.59570312 C-67.48808799 35.72427187 -62.74401457 35.86016239 -58 36 C-58 35.34 -58 34.68 -58 34 C-58.83660156 34.04640625 -59.67320313 34.0928125 -60.53515625 34.140625 C-70.13347179 34.43824719 -77.8678565 32.8649862 -87 30 C-87.495 27.525 -87.495 27.525 -88 25 C-87.01 24.67 -86.02 24.34 -85 24 C-85 23.34 -85 22.68 -85 22 C-80.11232438 19.55616219 -77.42451273 18.40455508 -72 20 C-70.32946863 20.67805529 -68.66310636 21.36643157 -67 22.0625 C-63.16185208 23.66849241 -60.21901111 24.44410643 -56 24 C-56 24.66 -56 25.32 -56 26 C-51.59033771 25.51003752 -50.02554636 24.12314463 -47 21 C-45 20.125 -45 20.125 -43 20 C-41.66666667 20.66666667 -40.33333333 21.33333333 -39 22 C-37.00043389 22.04165763 -34.99956611 22.04165763 -33 22 C-32.319375 22.185625 -31.63875 22.37125 -30.9375 22.5625 C-28.9251066 23.18290292 -28.9251066 23.18290292 -26.6875 22.3125 C-23.16502772 21.9029102 -21.40648289 22.90752905 -18.44921875 24.7421875 C-17 26 -17 26 -16.0625 28.75 C-16.041875 29.4925 -16.02125 30.235 -16 31 C-15.34 31 -14.68 31 -14 31 C-13.61070312 29.741875 -13.22140625 28.48375 -12.8203125 27.1875 C-10.94779771 21.572156 -8.45623864 16.31869056 -5.875 11 C-5.41996094 10.04738281 -4.96492188 9.09476563 -4.49609375 8.11328125 C-1.14721411 1.14721411 -1.14721411 1.14721411 0 0 Z " fill="#A79BB9" transform="translate(143,68)"/>
<path d="M0 0 C3.94556135 1.31518712 5.78595852 3.56000166 8 7 C8.51171875 9.578125 8.51171875 9.578125 8.6875 12.25 C8.78611328 13.58804688 8.78611328 13.58804688 8.88671875 14.953125 C8.92410156 15.62859375 8.96148437 16.3040625 9 17 C9.66 17 10.32 17 11 17 C11.02698189 18.62490954 11.04638757 20.24994633 11.0625 21.875 C11.07410156 22.77992187 11.08570313 23.68484375 11.09765625 24.6171875 C11 27 11 27 10 29 C11.32 29.33 12.64 29.66 14 30 C13.01 31.65 12.02 33.3 11 35 C15.41522109 33.73025028 15.41522109 33.73025028 19 31 C19.495 32.98 19.495 32.98 20 35 C19.34 35 18.68 35 18 35 C17.67 37.31 17.34 39.62 17 42 C17.99 42.495 17.99 42.495 19 43 C14.37690625 44.54103125 11.35423785 42.05601195 7.10546875 40.03125 C3.54930478 38.85033517 1.59602989 39.109794 -2 40 C-2.94875 40.185625 -3.8975 40.37125 -4.875 40.5625 C-5.57625 40.706875 -6.2775 40.85125 -7 41 C-7 41.66 -7 42.32 -7 43 C-7.99 43.495 -7.99 43.495 -9 44 C-9 45.65 -9 47.3 -9 49 C0.72608429 51.16589272 10.02951308 52.55447747 20 53 C20 53.66 20 54.32 20 55 C6.47 55 -7.06 55 -21 55 C-20.39846308 45.37540932 -19.82935592 36.47817039 -18.0625 27.125 C-17.89298828 26.18398437 -17.72347656 25.24296875 -17.54882812 24.2734375 C-17.21160102 22.41676509 -16.86631467 20.56153481 -16.51220703 18.70800781 C-16.16693343 16.88256703 -15.84015039 15.05354392 -15.53076172 13.22167969 C-15.37494629 12.34157227 -15.21913086 11.46146484 -15.05859375 10.5546875 C-14.92638428 9.77335449 -14.7941748 8.99202148 -14.65795898 8.18701172 C-13.89256988 5.64290945 -12.69320634 4.02562025 -11 2 C-10.01 2.33 -9.02 2.66 -8 3 C-8.66 4.65 -9.32 6.3 -10 8 C-9.34 7.01 -8.68 6.02 -8 5 C-6 2 -6 2 -4 1.375 C-3.34 1.25125 -2.68 1.1275 -2 1 C-1.34 0.67 -0.68 0.34 0 0 Z " fill="#993970" transform="translate(65,49)"/>
<path d="M0 0 C3.26564448 2.6527376 4.26470079 5.80364271 5.6875 9.6875 C6.12449219 10.86699219 6.56148437 12.04648438 7.01171875 13.26171875 C7.50091797 14.61716797 7.50091797 14.61716797 8 16 C8.66 16 9.32 16 10 16 C10.495 9.565 10.495 9.565 11 3 C10.34 3 9.68 3 9 3 C9 2.34 9 1.68 9 1 C10.62463842 0.94604522 12.24978541 0.90722805 13.875 0.875 C15.23238281 0.84019531 15.23238281 0.84019531 16.6171875 0.8046875 C19 1 19 1 21 3 C21.21676408 6.39597063 21.08073852 8.75778445 20 12 C20.66 12.99 21.32 13.98 22 15 C22.66 15 23.32 15 24 15 C25.98 10.05 27.96 5.1 30 0 C33.23200398 3.23200398 34.09195146 5.38325219 35.625 9.625 C36.81216621 13.60144743 36.81216621 13.60144743 39 17 C39 11.72 39 6.44 39 1 C40.98 1 42.96 1 45 1 C45 1.66 45 2.32 45 3 C44.34 3 43.68 3 43 3 C43.02320313 4.20398438 43.04640625 5.40796875 43.0703125 6.6484375 C43.08906863 8.22395215 43.10726899 9.79947348 43.125 11.375 C43.14175781 12.1690625 43.15851563 12.963125 43.17578125 13.78125 C43.19335473 15.85492015 43.10335168 17.92883241 43 20 C42.34 20.66 41.68 21.32 41 22 C38.375 21.625 38.375 21.625 36 21 C36 20.34 36 19.68 36 19 C34.68 18.34 33.36 17.68 32 17 C32.33 16.34 32.66 15.68 33 15 C32.505 14.01 32.505 14.01 32 13 C30.68 13 29.36 13 28 13 C28 14.65 28 16.3 28 18 C24.94928825 18.287803 22.03939738 18.4472872 19 18 C16.89638304 15.5776532 16 14.21754366 16 11 C15.34 11 14.68 11 14 11 C14.66 13.31 15.32 15.62 16 18 C11.38 18 6.76 18 2 18 C2.33 17.01 2.66 16.02 3 15 C2.67 14.34 2.34 13.68 2 13 C0.68 13 -0.64 13 -2 13 C-2 14.65 -2 16.3 -2 18 C-5.96 18 -9.92 18 -14 18 C-13.67 17.34 -13.34 16.68 -13 16 C-12.9310528 14.62657169 -12.91532292 13.24997898 -12.9375 11.875 C-12.958125 10.59625 -12.97875 9.3175 -13 8 C-13.26554687 8.71027344 -13.53109375 9.42054687 -13.8046875 10.15234375 C-14.33449219 11.53099609 -14.33449219 11.53099609 -14.875 12.9375 C-15.22304687 13.85402344 -15.57109375 14.77054688 -15.9296875 15.71484375 C-17 18 -17 18 -19 19 C-20.32 16.03 -21.64 13.06 -23 10 C-23.20970559 14.14093698 -23.20970559 14.14093698 -22 18 C-23.98 18 -25.96 18 -28 18 C-27.67 17.34 -27.34 16.68 -27 16 C-26.77049681 13.795636 -26.58924067 11.58607827 -26.4375 9.375 C-26.35371094 8.18648437 -26.26992187 6.99796875 -26.18359375 5.7734375 C-26.12300781 4.85820313 -26.06242187 3.94296875 -26 3 C-26.66 3 -27.32 3 -28 3 C-28 2.34 -28 1.68 -28 1 C-26.02 1 -24.04 1 -22 1 C-20.68 4.63 -19.36 8.26 -18 12 C-16.35 8.37 -14.7 4.74 -13 1 C-11.35 1 -9.7 1 -8 1 C-8 5.95 -8 10.9 -8 16 C-4.70181039 14.35090519 -4.129244 10.72914036 -2.875 7.4375 C-2.45927734 6.37112305 -2.45927734 6.37112305 -2.03515625 5.28320312 C-1.35057404 3.52453504 -0.67448365 1.76256576 0 0 Z M14 3 C14 4.98 14 6.96 14 9 C15.32 8.67 16.64 8.34 18 8 C17.67 6.35 17.34 4.7 17 3 C16.01 3 15.02 3 14 3 Z M0 7 C-0.33 7.99 -0.66 8.98 -1 10 C-0.34 10 0.32 10 1 10 C0.67 9.01 0.34 8.02 0 7 Z M29 7 C29 7.99 29 8.98 29 10 C29.66 10 30.32 10 31 10 C31 9.01 31 8.02 31 7 C30.34 7 29.68 7 29 7 Z " fill="#A4839A" transform="translate(134,112)"/>
<path d="M0 0 C3.83814792 1.60599241 6.78098889 2.38160643 11 1.9375 C11 2.5975 11 3.2575 11 3.9375 C15.40966229 3.44753752 16.97445364 2.06064463 20 -1.0625 C22 -1.9375 22 -1.9375 24 -2.0625 C25.33333333 -1.39583333 26.66666667 -0.72916667 28 -0.0625 C29.010625 -0.083125 30.02125 -0.10375 31.0625 -0.125 C34 -0.0625 34 -0.0625 35.625 1.3125 C36.305625 2.116875 36.305625 2.116875 37 2.9375 C37.70125 3.246875 38.4025 3.55625 39.125 3.875 C41 4.9375 41 4.9375 41.625 6.875 C41.74875 7.555625 41.8725 8.23625 42 8.9375 C42.99 10.4225 42.99 10.4225 44 11.9375 C38.06 11.9375 32.12 11.9375 26 11.9375 C26 12.5975 26 13.2575 26 13.9375 C26.8357959 13.69302124 26.8357959 13.69302124 27.68847656 13.44360352 C30.19510339 12.8947825 32.41980924 12.82420615 34.984375 12.83984375 C35.91894531 12.84306641 36.85351562 12.84628906 37.81640625 12.84960938 C38.78449219 12.85798828 39.75257812 12.86636719 40.75 12.875 C42.22533203 12.88176758 42.22533203 12.88176758 43.73046875 12.88867188 C46.15370791 12.90043517 48.57682273 12.91687316 51 12.9375 C51 13.5975 51 14.2575 51 14.9375 C41.76 14.9375 32.52 14.9375 23 14.9375 C23 14.2775 23 13.6175 23 12.9375 C21.02 12.2775 19.04 11.6175 17 10.9375 C17 10.2775 17 9.6175 17 8.9375 C16.19820312 8.94910156 15.39640625 8.96070312 14.5703125 8.97265625 C7.49235119 9.02883055 0.44446669 8.90150619 -6.625 8.5625 C-7.39440918 8.53164307 -8.16381836 8.50078613 -8.95654297 8.46899414 C-12.73186088 8.26816159 -15.78439675 8.03019418 -19 5.9375 C-19.33 6.5975 -19.66 7.2575 -20 7.9375 C-20.33 6.2875 -20.66 4.6375 -21 2.9375 C-20.01 2.6075 -19.02 2.2775 -18 1.9375 C-18 1.2775 -18 0.6175 -18 -0.0625 C-10.94200108 -3.59149946 -7.26444282 -3.0404245 0 0 Z " fill="#E2D3D3" transform="translate(76,90.0625)"/>
<path d="M0 0 C0.66 0 1.32 0 2 0 C1.66666667 1.33333333 1.33333333 2.66666667 1 4 C0.855625 4.70125 0.71125 5.4025 0.5625 6.125 C0 8 0 8 -2 10 C-1.43457996 11.32031595 -0.84693528 12.6311301 -0.25 13.9375 C0.23726562 15.03384766 0.23726562 15.03384766 0.734375 16.15234375 C2.32266778 18.47105512 3.33494533 18.44119821 6 19 C7.25 21.5625 7.25 21.5625 8 24 C8.33 22.68 8.66 21.36 9 20 C11 22 11 22 11 26 C11.99 25.01 12.98 24.02 14 23 C14.66 23.33 15.32 23.66 16 24 C17.28317892 27.84953676 17.06643637 30.94738135 17 35 C17.99 35 18.98 35 20 35 C19.67 35.99 19.34 36.98 19 38 C19 37.34 19 36.68 19 36 C18.01 36 17.02 36 16 36 C15.81824219 36.81791016 15.81824219 36.81791016 15.6328125 37.65234375 C14.421875 43.1015625 13.2109375 48.55078125 12 54 C11.01 53.67 10.02 53.34 9 53 C7.74458443 49.23375329 8.62938042 47.62811066 10 44 C9.34 44 8.68 44 8 44 C7.34 44.66 6.68 45.32 6 46 C6 45.34 6 44.68 6 44 C4.02 44.495 4.02 44.495 2 45 C2.66 43.35 3.32 41.7 4 40 C2.515 39.505 2.515 39.505 1 39 C1.33 35.04 1.66 31.08 2 27 C1.01 27.33 0.02 27.66 -1 28 C-0.938125 26.989375 -0.87625 25.97875 -0.8125 24.9375 C-1.05259465 19.89551235 -2.42354227 16.12479085 -5.4375 12.0625 C-7.23636316 10.62512665 -7.23636316 10.62512665 -11 11 C-11.33 11.66 -11.66 12.32 -12 13 C-12.99 13 -13.98 13 -15 13 C-15.99 15.31 -16.98 17.62 -18 20 C-18.33 19.34 -18.66 18.68 -19 18 C-19.66 17.67 -20.32 17.34 -21 17 C-20.67 16.34 -20.34 15.68 -20 15 C-19.34 15 -18.68 15 -18 15 C-18.33 13.68 -18.66 12.36 -19 11 C-14.64265872 7.78932748 -10.36475211 5.85097887 -5.26953125 4.02734375 C-2.93871768 2.97225947 -1.74812438 1.82031831 0 0 Z " fill="#C0BFC2" transform="translate(74,39)"/>
<path d="M0 0 C10.63886764 -0.55776588 10.63886764 -0.55776588 15 3 C15.66128906 3.4640625 16.32257813 3.928125 17.00390625 4.40625 C22.16520156 8.32107864 24.00312348 11.48150596 25.0390625 17.86328125 C25 20 25 20 23 22 C21.125 22 21.125 22 19 21 C17.61876037 19.03277992 16.28511874 17.03131672 15 15 C14.01 14.34 13.02 13.68 12 13 C11.67 14.32 11.34 15.64 11 17 C9.35 17 7.7 17 6 17 C5.67 17.99 5.34 18.98 5 20 C4.34 20 3.68 20 3 20 C2.67 19.01 2.34 18.02 2 17 C0.68 18.32 -0.64 19.64 -2 21 C-2.66 20.01 -3.32 19.02 -4 18 C-4.66 18.99 -5.32 19.98 -6 21 C-6.99 21 -7.98 21 -9 21 C-6.20978248 6.75298021 -6.20978248 6.75298021 -2 2 C-1.34 2 -0.68 2 0 2 C0 1.34 0 0.68 0 0 Z " fill="#2D2951" transform="translate(89,17)"/>
<path d="M0 0 C3.33355357 1.37940148 5.36343728 2.72687457 7 6 C6.375 8.8125 6.375 8.8125 5 12 C4.731875 12.64066406 4.46375 13.28132813 4.1875 13.94140625 C3.4758232 15.63506016 2.73987232 17.31847201 2 19 C1.01 18.67 0.02 18.34 -1 18 C-1.33 18.99 -1.66 19.98 -2 21 C-2.66 21 -3.32 21 -4 21 C-4.33 21.99 -4.66 22.98 -5 24 C-5.61488281 23.91621094 -6.22976562 23.83242188 -6.86328125 23.74609375 C-7.67152344 23.64425781 -8.47976562 23.54242188 -9.3125 23.4375 C-10.11300781 23.33308594 -10.91351563 23.22867188 -11.73828125 23.12109375 C-14.16817116 22.85244822 -14.16817116 22.85244822 -17 24 C-17.33 23.01 -17.66 22.02 -18 21 C-18.680625 20.319375 -19.36125 19.63875 -20.0625 18.9375 C-20.701875 18.298125 -21.34125 17.65875 -22 17 C-22 16.34 -22 15.68 -22 15 C-22.66 14.34 -23.32 13.68 -24 13 C-24 10 -24 10 -22 8 C-20.68 8 -19.36 8 -18 8 C-17.34 6.68 -16.68 5.36 -16 4 C-14.68 4.66 -13.36 5.32 -12 6 C-11.34 4.68 -10.68 3.36 -10 2 C-9.67 3.65 -9.34 5.3 -9 7 C-8.608125 6.505 -8.21625 6.01 -7.8125 5.5 C-5.44908285 3.54406857 -3.98564997 3.75792027 -1 4 C-0.67 2.68 -0.34 1.36 0 0 Z " fill="#E2C2C6" transform="translate(101,30)"/>
<path d="M0 0 C10.55808656 1.92710706 10.55808656 1.92710706 15 4 C14.39458825 7.69909473 13.34742345 10.71354402 11.71484375 14.08203125 C11.04291992 15.47905273 11.04291992 15.47905273 10.35742188 16.90429688 C9.88884766 17.86400391 9.42027344 18.82371094 8.9375 19.8125 C8.22883789 21.28106445 8.22883789 21.28106445 7.50585938 22.77929688 C6.34229316 25.18870167 5.17353704 27.59544007 4 30 C2.68 29.67 1.36 29.34 0 29 C0 28.01 0 27.02 0 26 C-1.98 26.99 -3.96 27.98 -6 29 C-6.05423638 27.08364783 -6.09289963 25.16685075 -6.125 23.25 C-6.14820313 22.18265625 -6.17140625 21.1153125 -6.1953125 20.015625 C-6.00487687 17.07529894 -5.52670104 15.47638122 -4 13 C-4.66 13 -5.32 13 -6 13 C-4.58707905 8.1725201 -2.57025846 4.2837641 0 0 Z " fill="#E3DBDC" transform="translate(143,68)"/>
<path d="M0 0 C3.88714516 1.29571505 5.91195535 3.51992558 8 7 C7.6344118 11.99637205 4.93959278 15.12508225 2 19 C0.68 17.35 -0.64 15.7 -2 14 C-1.34 16.31 -0.68 18.62 0 21 C-0.99 21 -1.98 21 -3 21 C-2.45773019 24.79588866 -0.79872437 26.47211993 2 29 C-0.64 28.67 -3.28 28.34 -6 28 C-5.67 28.99 -5.34 29.98 -5 31 C-6.98 31.99 -6.98 31.99 -9 33 C-8.67 34.65 -8.34 36.3 -8 38 C-8.66 37.67 -9.32 37.34 -10 37 C-9.67 36.34 -9.34 35.68 -9 35 C-9.99 35 -10.98 35 -12 35 C-12.05784708 30.87505849 -12.09354407 26.75022056 -12.125 22.625 C-12.14175781 21.449375 -12.15851562 20.27375 -12.17578125 19.0625 C-12.18222656 17.94101563 -12.18867187 16.81953125 -12.1953125 15.6640625 C-12.20578613 14.62717285 -12.21625977 13.5902832 -12.22705078 12.52197266 C-12 10 -12 10 -10 8 C-9.34 7.01 -8.68 6.02 -8 5 C-6 2 -6 2 -4 1.375 C-3.34 1.25125 -2.68 1.1275 -2 1 C-1.34 0.67 -0.68 0.34 0 0 Z " fill="#F28567" transform="translate(65,49)"/>
<path d="M0 0 C1 2.75 1 2.75 1 5 C1.99 4.67 2.98 4.34 4 4 C4 7 4 7 3 10 C5.475 10.495 5.475 10.495 8 11 C8 11.33 8 11.66 8 12 C3.04491471 13.01273609 -1.58726973 13.08425997 -6.609375 12.94921875 C-7.41739563 12.9303511 -8.22541626 12.91148346 -9.05792236 12.89204407 C-10.75565042 12.85036547 -12.45330638 12.80565062 -14.15087891 12.75805664 C-16.7553928 12.68735361 -19.35992044 12.63327485 -21.96484375 12.58007812 C-23.61721383 12.53746723 -25.26955912 12.49388181 -26.921875 12.44921875 C-28.0921524 12.42718636 -28.0921524 12.42718636 -29.28607178 12.40470886 C-34.77093892 12.22906108 -34.77093892 12.22906108 -37 10 C-36.67 9.01 -36.34 8.02 -36 7 C-34.54077307 7.11409593 -33.08259402 7.24165544 -31.625 7.375 C-30.81289062 7.44460937 -30.00078125 7.51421875 -29.1640625 7.5859375 C-27 8 -27 8 -25 10 C-22.50853526 10.26157857 -22.50853526 10.26157857 -19.625 10.16015625 C-18.55765625 10.14919922 -17.4903125 10.13824219 -16.390625 10.12695312 C-15.27171875 10.10568359 -14.1528125 10.08441406 -13 10.0625 C-10.79173068 10.0281548 -8.58339104 9.99799407 -6.375 9.97265625 C-5.39273438 9.95468994 -4.41046875 9.93672363 -3.3984375 9.91821289 C-1 10 -1 10 1 11 C1 10.34 1 9.68 1 9 C-11.375 9.495 -11.375 9.495 -24 10 C-24 9.34 -24 8.68 -24 8 C-18.29014022 7.25983299 -12.75813575 6.89530662 -7 7 C-7.495 6.38125 -7.99 5.7625 -8.5 5.125 C-10 3 -10 3 -10 1 C-11.32 0.34 -12.64 -0.32 -14 -1 C-9.33174982 -5.66825018 -4.79582183 -3.53376345 0 0 Z " fill="#675B77" transform="translate(126,94)"/>
<path d="M0 0 C0.66666667 1.33333333 1.33333333 2.66666667 2 4 C2.37125 4.680625 2.7425 5.36125 3.125 6.0625 C4 8 4 8 4 11 C13.72608429 13.16589272 23.02951308 14.55447747 33 15 C33 15.66 33 16.32 33 17 C19.47 17 5.94 17 -8 17 C-6.78571429 4.85714286 -6.78571429 4.85714286 -5 2 C-2.375 0.6875 -2.375 0.6875 0 0 Z " fill="#622C5F" transform="translate(52,87)"/>
<path d="M0 0 C0.66 0 1.32 0 2 0 C2.8394882 2.10171867 3.67139656 4.20646625 4.5 6.3125 C4.9640625 7.48425781 5.428125 8.65601562 5.90625 9.86328125 C7 13 7 13 7 16 C7.99 16 8.98 16 10 16 C10.33 11.71 10.66 7.42 11 3 C10.34 3 9.68 3 9 3 C9 2.34 9 1.68 9 1 C10.91541138 0.89158049 12.83259773 0.81421921 14.75 0.75 C16.35101563 0.68039063 16.35101563 0.68039063 17.984375 0.609375 C21 1 21 1 23.36328125 2.80078125 C25.73347436 5.98555147 25.47617217 8.12259802 25 12 C22.8 16.6 22.8 16.6 20 18 C17.11629667 18.07194869 14.25760336 18.09291708 11.375 18.0625 C10.57320312 18.05798828 9.77140625 18.05347656 8.9453125 18.04882812 C6.96350994 18.03703168 4.98174567 18.01909605 3 18 C3 16.02 3 14.04 3 12 C1.35 12 -0.3 12 -2 12 C-2 13.98 -2 15.96 -2 18 C-3.65 18 -5.3 18 -7 18 C-4.69 12.06 -2.38 6.12 0 0 Z M14 3 C14 7.29 14 11.58 14 16 C15.65 16 17.3 16 19 16 C21.52788866 13.13505952 22.03766471 11.64030003 21.8125 7.8125 C21.21417687 4.89212531 21.21417687 4.89212531 19 3 C17.35 3 15.7 3 14 3 Z M0 6 C-0.33 7.32 -0.66 8.64 -1 10 C-0.01 9.67 0.98 9.34 2 9 C1.34 8.01 0.68 7.02 0 6 Z " fill="#A3839A" transform="translate(80,112)"/>
<path d="M0 0 C2 2 2 2 2.125 5.125 C2.08375 6.07375 2.0425 7.0225 2 8 C2.66 8 3.32 8 4 8 C4.02698189 9.62490954 4.04638757 11.24994633 4.0625 12.875 C4.07410156 13.77992187 4.08570312 14.68484375 4.09765625 15.6171875 C4 18 4 18 3 20 C4.32 20.33 5.64 20.66 7 21 C5.515 23.475 5.515 23.475 4 26 C8.41522109 24.73025028 8.41522109 24.73025028 12 22 C12.33 23.32 12.66 24.64 13 26 C12.34 26 11.68 26 11 26 C10.67 28.31 10.34 30.62 10 33 C10.66 33.33 11.32 33.66 12 34 C8.0942221 35.30192597 6.64806685 34.39331847 2.875 32.875 C1.26238281 32.25238281 1.26238281 32.25238281 -0.3828125 31.6171875 C-3 30 -3 30 -3.92578125 27.66015625 C-4.00583482 24.79086794 -3.6709848 22.36630249 -3.0625 19.5625 C-1.49326647 12.67031279 -1.49326647 12.67031279 -3 6 C-2.125 4 -2.125 4 -1 2 C-0.67 1.34 -0.34 0.68 0 0 Z " fill="#8C3581" transform="translate(72,58)"/>
<path d="M0 0 C0.99 0.66 1.98 1.32 3 2 C3 2.99 3 3.98 3 5 C4.18318364 8.73157917 4.64085078 9.76056718 8 12 C8 12.99 8 13.98 8 15 C8.99 14.34 9.98 13.68 11 13 C13.1875 13.375 13.1875 13.375 15 14 C15.93065133 16.60582371 16.14917407 17.64198224 15.0625 20.25 C14.5365625 21.11625 14.5365625 21.11625 14 22 C13.34 22 12.68 22 12 22 C9.73150334 25.65172633 9.6104049 29.0127118 9.375 33.25 C9.30023438 34.51328125 9.22546875 35.7765625 9.1484375 37.078125 C9.09945312 38.04234375 9.05046875 39.0065625 9 40 C8.67 40 8.34 40 8 40 C8 33.73 8 27.46 8 21 C7.34 22.32 6.68 23.64 6 25 C4 22 4 22 3 19 C2.36578125 18.86722656 1.7315625 18.73445313 1.078125 18.59765625 C-1 18 -1 18 -2.265625 15.93359375 C-2.59046875 15.10988281 -2.9153125 14.28617188 -3.25 13.4375 C-3.58515625 12.61121094 -3.9203125 11.78492188 -4.265625 10.93359375 C-4.50796875 10.29550781 -4.7503125 9.65742187 -5 9 C-4.01 8.67 -3.02 8.34 -2 8 C-1.855625 7.236875 -1.71125 6.47375 -1.5625 5.6875 C-1 3 -1 3 0 0 Z " fill="#CB4E75" transform="translate(76,39)"/>
<path d="M0 0 C0.66 0 1.32 0 2 0 C1.83628906 0.54140625 1.67257813 1.0828125 1.50390625 1.640625 C0.91409413 4.40222593 0.90390692 6.92818139 0.9375 9.75 C0.95103516 11.22726563 0.95103516 11.22726563 0.96484375 12.734375 C0.97644531 13.48203125 0.98804688 14.2296875 1 15 C2.65 14.34 4.3 13.68 6 13 C6 13.99 6 14.98 6 16 C6.99 16.33 7.98 16.66 9 17 C8.01 19.475 8.01 19.475 7 22 C6.34 22 5.68 22 5 22 C5 22.66 5 23.32 5 24 C0.35150485 26.3992233 -3.91086074 26.19957409 -9 26 C-9.20086443 22.28400809 -9.1519437 21.22791555 -7 18 C-7.33 17.34 -7.66 16.68 -8 16 C-7.37915039 14.30419922 -7.37915039 14.30419922 -6.34765625 12.3046875 C-5.98349609 11.58925781 -5.61933594 10.87382813 -5.24414062 10.13671875 C-4.85419922 9.39035156 -4.46425781 8.64398438 -4.0625 7.875 C-3.67642578 7.12089844 -3.29035156 6.36679688 -2.89257812 5.58984375 C-1.93547868 3.72290903 -0.96863894 1.86097372 0 0 Z " fill="#C0BBC8" transform="translate(137,81)"/>
<path d="M0 0 C0.9075 0.309375 1.815 0.61875 2.75 0.9375 C5.93527891 2.17628369 5.93527891 2.17628369 9.1875 1.9375 C12 2 12 2 13.625 3.375 C14.305625 4.179375 14.305625 4.179375 15 5 C15.70125 5.309375 16.4025 5.61875 17.125 5.9375 C19 7 19 7 19.625 8.9375 C19.74875 9.618125 19.8725 10.29875 20 11 C20.99 12.485 20.99 12.485 22 14 C16.72 14 11.44 14 6 14 C6 13.34 6 12.68 6 12 C4.02 11.34 2.04 10.68 0 10 C0 9.01 0 8.02 0 7 C-1.32 7.33 -2.64 7.66 -4 8 C-4 7.34 -4 6.68 -4 6 C-4.66 5.67 -5.32 5.34 -6 5 C-2.25 1.125 -2.25 1.125 0 0 Z " fill="#D9C8CE" transform="translate(98,88)"/>
<path d="M0 0 C1.60332791 -0.08121924 3.20784026 -0.13929134 4.8125 -0.1875 C6.15248047 -0.23970703 6.15248047 -0.23970703 7.51953125 -0.29296875 C10 0 10 0 11.83984375 1.3515625 C13 3 13 3 12.75 5.5625 C12 8 12 8 11 10 C11.6830333 12.11629529 11.6830333 12.11629529 13 14 C13.99 14.33 14.98 14.66 16 15 C16.33 10.71 16.66 6.42 17 2 C16.34 2 15.68 2 15 2 C15 1.34 15 0.68 15 0 C17.31 0 19.62 0 22 0 C21.67 0.66 21.34 1.32 21 2 C20.9283265 4.55157655 20.90691558 7.07472971 20.9375 9.625 C20.94201172 10.33140625 20.94652344 11.0378125 20.95117188 11.765625 C20.96296125 13.51045275 20.98089676 15.255237 21 17 C17.600219 17.35035911 14.38533743 17.53760862 11 17 C8.5 14.0625 8.5 14.0625 7 11 C6.34 10.67 5.68 10.34 5 10 C5.66 12.31 6.32 14.62 7 17 C4.69 17 2.38 17 0 17 C0.33 16.34 0.66 15.68 1 15 C1.22950319 12.795636 1.41075933 10.58607827 1.5625 8.375 C1.64628906 7.18648438 1.73007812 5.99796875 1.81640625 4.7734375 C1.87699219 3.85820313 1.93757813 2.94296875 2 2 C1.34 2 0.68 2 0 2 C0 1.34 0 0.68 0 0 Z M5 2 C5 3.98 5 5.96 5 8 C6.32 7.67 7.64 7.34 9 7 C9 5.35 9 3.7 9 2 C7.68 2 6.36 2 5 2 Z " fill="#A3849A" transform="translate(34,113)"/>
<path d="M0 0 C0.66 0 1.32 0 2 0 C1.66666667 1.33333333 1.33333333 2.66666667 1 4 C0.855625 4.70125 0.71125 5.4025 0.5625 6.125 C0 8 0 8 -2 10 C-1.505 10.9075 -1.01 11.815 -0.5 12.75 C1 16 1 16 1 20 C1.66 20.33 2.32 20.66 3 21 C6 26.42307692 6 26.42307692 6 29 C5.01 29.33 4.02 29.66 3 30 C2.67 29.01 2.34 28.02 2 27 C1.01 27.33 0.02 27.66 -1 28 C-0.938125 26.989375 -0.87625 25.97875 -0.8125 24.9375 C-1.05259465 19.89551235 -2.42354227 16.12479085 -5.4375 12.0625 C-7.23636316 10.62512665 -7.23636316 10.62512665 -11 11 C-11.33 11.66 -11.66 12.32 -12 13 C-12.99 13 -13.98 13 -15 13 C-15.99 15.31 -16.98 17.62 -18 20 C-18.33 19.34 -18.66 18.68 -19 18 C-19.66 17.67 -20.32 17.34 -21 17 C-20.67 16.34 -20.34 15.68 -20 15 C-19.34 15 -18.68 15 -18 15 C-18.33 13.68 -18.66 12.36 -19 11 C-14.64265872 7.78932748 -10.36475211 5.85097887 -5.26953125 4.02734375 C-2.93871768 2.97225947 -1.74812438 1.82031831 0 0 Z " fill="#B67F7D" transform="translate(74,39)"/>
<path d="M0 0 C0.80566406 0.04833984 1.61132812 0.09667969 2.44140625 0.14648438 C3.28316406 0.20255859 4.12492187 0.25863281 4.9921875 0.31640625 C6.26642578 0.3947168 6.26642578 0.3947168 7.56640625 0.47460938 C9.66697874 0.60442003 11.76712941 0.74102365 13.8671875 0.87890625 C13.4921875 2.81640625 13.4921875 2.81640625 12.8671875 4.87890625 C9.66030679 6.4823466 6.17535903 6.0081337 2.65380859 5.99243164 C1.38052956 5.99265068 1.38052956 5.99265068 0.08152771 5.99287415 C-2.73213227 5.99217591 -5.54572654 5.98438765 -8.359375 5.9765625 C-10.30707768 5.974698 -12.25478082 5.97327425 -14.20248413 5.97227478 C-19.33501474 5.96845208 -24.46751717 5.9586239 -29.60003662 5.9475708 C-34.83491637 5.93735137 -40.06980066 5.93277602 -45.3046875 5.92773438 C-55.58074157 5.91700142 -65.85677469 5.89992795 -76.1328125 5.87890625 C-76.1328125 5.54890625 -76.1328125 5.21890625 -76.1328125 4.87890625 C-75.32959061 4.86859879 -74.52636871 4.85829132 -73.69880676 4.84767151 C-66.12147856 4.74960901 -58.54423003 4.6470823 -50.96703053 4.53956699 C-47.07171694 4.48445193 -43.1763957 4.43105058 -39.28100586 4.3815918 C-35.52028259 4.33377935 -31.75964707 4.28143116 -27.99902916 4.2259655 C-26.56577432 4.20561822 -25.13249549 4.18689288 -23.69919777 4.16983223 C-21.68848727 4.14561888 -19.67785633 4.11505338 -17.66723633 4.08422852 C-16.52362137 4.06868423 -15.38000641 4.05313995 -14.20173645 4.03712463 C-11.40485427 3.89293136 -8.85554544 3.5130751 -6.1328125 2.87890625 C-6.1328125 2.21890625 -6.1328125 1.55890625 -6.1328125 0.87890625 C-3.77622853 -0.29938574 -2.60708014 -0.16523747 0 0 Z " fill="#D7EAEE" transform="translate(148.1328125,102.12109375)"/>
<path d="M0 0 C4.01364552 0.422489 7.31988834 1.48928006 11 3.0625 C14.83814792 4.66849241 17.78098889 5.44410643 22 5 C22 5.66 22 6.32 22 7 C23.0725 6.979375 24.145 6.95875 25.25 6.9375 C28.14790424 6.9857984 30.28612141 7.13155885 33 8 C33 8.99 33 9.98 33 11 C36.3 11 39.6 11 43 11 C38.859724 14.105207 37.90248464 14.63945452 33 14 C32.34 13.01 31.68 12.02 31 11 C28.9906373 11.03464418 26.98125575 11.07530469 24.97265625 11.140625 C21.12411011 10.958565 17.55283636 10.2040569 13.8125 9.3125 C12.79712158 9.08929077 12.79712158 9.08929077 11.76123047 8.86157227 C6.73796255 7.60483167 3.69332435 5.6473732 0 2 C0 1.34 0 0.68 0 0 Z " fill="#FCFCFC" transform="translate(65,87)"/>
<path d="M0 0 C3.34163899 1.38274717 5.25766748 2.79044009 7 6 C6.6875 8.75 6.6875 8.75 6 11 C5.21625 10.649375 4.4325 10.29875 3.625 9.9375 C2.75875 9.628125 1.8925 9.31875 1 9 C0.01 9.495 0.01 9.495 -1 10 C-1.66 9.67 -2.32 9.34 -3 9 C-3 9.66 -3 10.32 -3 11 C-2.34 11 -1.68 11 -1 11 C-1.33 13.64 -1.66 16.28 -2 19 C-3.65 19 -5.3 19 -7 19 C-7.98419339 14.94020228 -8.23183367 11.17300608 -8 7 C-7.34 6.01 -6.68 5.02 -6 4 C-3.375 3.8125 -3.375 3.8125 -1 4 C-0.67 2.68 -0.34 1.36 0 0 Z " fill="#EFDCDC" transform="translate(101,30)"/>
<path d="M0 0 C1.65 1.65 3.3 3.3 5 5 C6.32 4.34 7.64 3.68 9 3 C9.22387383 8.95753142 8.94840239 14.30854364 7.4375 20.08984375 C6.88837111 22.1607767 6.88837111 22.1607767 7 25 C6.01 24.67 5.02 24.34 4 24 C4 23.01 4 22.02 4 21 C2.68 20.34 1.36 19.68 0 19 C0.66 18.67 1.32 18.34 2 18 C1.195625 17.71125 0.39125 17.4225 -0.4375 17.125 C-3 16 -3 16 -4 14 C-1.69 14.33 0.62 14.66 3 15 C2.319375 14.4225 1.63875 13.845 0.9375 13.25 C0.298125 12.5075 -0.34125 11.765 -1 11 C-0.75 8.75 -0.75 8.75 0 7 C0.99 7.33 1.98 7.66 3 8 C2.505 7.236875 2.01 6.47375 1.5 5.6875 C0 3 0 3 0 0 Z " fill="#8CBEC7" transform="translate(62,62)"/>
<path d="M0 0 C2.31 0.33 4.62 0.66 7 1 C7 1.66 7 2.32 7 3 C11.10223585 4.01540112 11.10223585 4.01540112 15 3 C15.33 4.65 15.66 6.3 16 8 C12.55930376 10.29379749 11.27709699 11 7 11 C7 10.34 7 9.68 7 9 C5.72125 9.20625 4.4425 9.4125 3.125 9.625 C0.9453125 9.9765625 0.9453125 9.9765625 -1 10 C-1.66 9.34 -2.32 8.68 -3 8 C-2.60495559 5.0371669 -1.40182371 2.61673759 0 0 Z " fill="#302249" transform="translate(86,20)"/>
<path d="M0 0 C0.50756836 0.1539624 1.01513672 0.3079248 1.53808594 0.46655273 C4.80352732 1.17410821 8.0640488 1.34620116 11.390625 1.53515625 C12.09523865 1.57813339 12.79985229 1.62111053 13.52581787 1.66539001 C15.76701648 1.80128098 18.00848391 1.93196126 20.25 2.0625 C21.77345819 2.15395281 23.296896 2.24574586 24.8203125 2.33789062 C28.54664695 2.56253607 32.27324025 2.78251071 36 3 C36 5 36 5 34.8125 6.625 C32.44439338 8.42149467 30.90102749 8.23521845 28 8 C28 7.34 28 6.68 28 6 C27.14019531 6.03480469 26.28039062 6.06960937 25.39453125 6.10546875 C17.08279705 6.29581381 8.84768997 6.04144922 1 3 C0.67 2.01 0.34 1.02 0 0 Z " fill="#D8B3BD" transform="translate(57,96)"/>
<path d="M0 0 C0.721875 0.00257812 1.44375 0.00515625 2.1875 0.0078125 C2.909375 0.00523438 3.63125 0.00265625 4.375 0 C6.1875 0.1328125 6.1875 0.1328125 7.1875 1.1328125 C7.22813832 2.79898365 7.230221 4.46669345 7.1875 6.1328125 C6.5275 6.1328125 5.8675 6.1328125 5.1875 6.1328125 C4.8575 5.1428125 4.5275 4.1528125 4.1875 3.1328125 C2.17241642 2.39957454 2.17241642 2.39957454 0.1875 2.1328125 C1.29425113 5.05061094 1.9982222 6.02201574 4.75 7.6328125 C7.1875 9.1328125 7.1875 9.1328125 8.1875 11.0703125 C8.1875 13.1328125 8.1875 13.1328125 7.25 15.3828125 C4.03366026 18.11182804 1.31621935 17.4035482 -2.8125 17.1328125 C-3.1425 15.4828125 -3.4725 13.8328125 -3.8125 12.1328125 C-2.8225 12.1328125 -1.8325 12.1328125 -0.8125 12.1328125 C-0.8125 13.1228125 -0.8125 14.1128125 -0.8125 15.1328125 C0.8375 15.1328125 2.4875 15.1328125 4.1875 15.1328125 C4.13981597 13.25400378 4.13981597 13.25400378 3.1875 11.1328125 C2.176875 10.5140625 1.16625 9.8953125 0.125 9.2578125 C-0.844375 8.5565625 -1.81375 7.8553125 -2.8125 7.1328125 C-3.25 3.9453125 -3.25 3.9453125 -2.8125 1.1328125 C-1.8125 0.1328125 -1.8125 0.1328125 0 0 Z " fill="#A4849A" transform="translate(24.8125,112.8671875)"/>
<path d="M0 0 C2.375 0.1875 2.375 0.1875 5 1 C6.3125 3.5625 6.3125 3.5625 7 6 C7.33 4.68 7.66 3.36 8 2 C8.66 2.66 9.32 3.32 10 4 C9.828125 6.3125 9.828125 6.3125 9.25 9 C9.06953125 9.886875 8.8890625 10.77375 8.703125 11.6875 C8 14 8 14 6 16 C6.33 16.66 6.66 17.32 7 18 C6.01 19.32 5.02 20.64 4 22 C2.68 21.67 1.36 21.34 0 21 C0.33 17.7 0.66 14.4 1 11 C2.32 11 3.64 11 5 11 C3.46395304 7.85808576 1.94268841 4.91403262 0 2 C0 1.34 0 0.68 0 0 Z " fill="#9DC3CA" transform="translate(75,57)"/>
<path d="M0 0 C2.31 1.98 4.62 3.96 7 6 C6.01 6.495 6.01 6.495 5 7 C6.32 7 7.64 7 9 7 C9.99 7.33 10.98 7.66 12 8 C11.67 8.66 11.34 9.32 11 10 C10.030625 10.309375 9.06125 10.61875 8.0625 10.9375 C4.7319557 11.74744122 4.7319557 11.74744122 3 15 C0.375 15.1875 0.375 15.1875 -2 15 C-2 14.34 -2 13.68 -2 13 C-2.66 13 -3.32 13 -4 13 C-3.52343588 11.20763933 -3.04366502 9.41613103 -2.5625 7.625 C-2.29566406 6.62726563 -2.02882813 5.62953125 -1.75390625 4.6015625 C-1 2 -1 2 0 0 Z " fill="#402C5A" transform="translate(89,79)"/>
<path d="M0 0 C1.62490954 -0.02698189 3.24994633 -0.04638757 4.875 -0.0625 C5.77992187 -0.07410156 6.68484375 -0.08570312 7.6171875 -0.09765625 C10 0 10 0 12 1 C12.875 3.3125 12.875 3.3125 13 6 C11.3125 8.3125 11.3125 8.3125 9 10 C7.68 10 6.36 10 5 10 C5.66 12.31 6.32 14.62 7 17 C4.69 17 2.38 17 0 17 C0.33 16.34 0.66 15.68 1 15 C1.22950319 12.795636 1.41075933 10.58607827 1.5625 8.375 C1.64628906 7.18648438 1.73007812 5.99796875 1.81640625 4.7734375 C1.87699219 3.85820313 1.93757813 2.94296875 2 2 C1.34 2 0.68 2 0 2 C0 1.34 0 0.68 0 0 Z M5 2 C5 3.98 5 5.96 5 8 C6.32 7.67 7.64 7.34 9 7 C9 5.35 9 3.7 9 2 C7.68 2 6.36 2 5 2 Z " fill="#A3839A" transform="translate(62,113)"/>
<path d="M0 0 C0.33 0.99 0.66 1.98 1 3 C1.99 2.34 2.98 1.68 4 1 C6.1875 1.375 6.1875 1.375 8 2 C8.93065133 4.60582371 9.14917407 5.64198224 8.0625 8.25 C7.711875 8.8275 7.36125 9.405 7 10 C6.34 10 5.68 10 5 10 C2.73150334 13.65172633 2.6104049 17.0127118 2.375 21.25 C2.30023438 22.51328125 2.22546875 23.7765625 2.1484375 25.078125 C2.09945312 26.04234375 2.05046875 27.0065625 2 28 C1.67 28 1.34 28 1 28 C1 21.73 1 15.46 1 9 C0.34 9 -0.32 9 -1 9 C-3 6 -3 6 -3 3 C-2.34 3 -1.68 3 -1 3 C-0.67 2.01 -0.34 1.02 0 0 Z " fill="#483766" transform="translate(83,51)"/>
<path d="M0 0 C1.45922693 0.11409593 2.91740598 0.24165544 4.375 0.375 C5.59316406 0.47941406 5.59316406 0.47941406 6.8359375 0.5859375 C9 1 9 1 11 3 C13.71892211 3.26206156 13.71892211 3.26206156 16.890625 3.16015625 C18.07527344 3.14919922 19.25992188 3.13824219 20.48046875 3.12695312 C21.72441406 3.10568359 22.96835938 3.08441406 24.25 3.0625 C26.69264684 3.02789797 29.13536248 2.99779844 31.578125 2.97265625 C32.66512695 2.95468994 33.75212891 2.93672363 34.87207031 2.91821289 C38.00526729 3.00013773 40.92532822 3.41042793 44 4 C44 4.33 44 4.66 44 5 C39.04491471 6.01273609 34.41273027 6.08425997 29.390625 5.94921875 C28.58260437 5.9303511 27.77458374 5.91148346 26.94207764 5.89204407 C25.24434958 5.85036547 23.54669362 5.80565062 21.84912109 5.75805664 C19.2446072 5.68735361 16.64007956 5.63327485 14.03515625 5.58007812 C12.38278617 5.53746723 10.73044088 5.49388181 9.078125 5.44921875 C7.9078476 5.42718636 7.9078476 5.42718636 6.71392822 5.40470886 C1.22906108 5.22906108 1.22906108 5.22906108 -1 3 C-0.67 2.01 -0.34 1.02 0 0 Z " fill="#25254A" transform="translate(90,101)"/>
<path d="M0 0 C2 3.75 2 3.75 2 6 C2.66 6.33 3.32 6.66 4 7 C3.01 7.33 2.02 7.66 1 8 C0.67 10.31 0.34 12.62 0 15 C-1.32 15.33 -2.64 15.66 -4 16 C-4.28875 15.21625 -4.5775 14.4325 -4.875 13.625 C-5.84912254 10.90328368 -5.84912254 10.90328368 -8 9 C-8 6 -8 6 -6 4 C-4.68 4 -3.36 4 -2 4 C-1.34 2.68 -0.68 1.36 0 0 Z " fill="#F6DFD5" transform="translate(85,34)"/>
<path d="M0 0 C2.0081326 0.28020455 4.0075675 0.62406934 6 1 C8 1.33333333 10 1.66666667 12 2 C12 2.66 12 3.32 12 4 C12.66 4.33 13.32 4.66 14 5 C12.625 7 12.625 7 11 9 C10.34 9 9.68 9 9 9 C8.67 8.01 8.34 7.02 8 6 C6.68 7.32 5.36 8.64 4 10 C3.34 9.01 2.68 8.02 2 7 C1.01 8.485 1.01 8.485 0 10 C-0.99 10 -1.98 10 -3 10 C-2.69201674 8.51988629 -2.378482 7.04092675 -2.0625 5.5625 C-1.88847656 4.73878906 -1.71445313 3.91507813 -1.53515625 3.06640625 C-1 1 -1 1 0 0 Z " fill="#653C65" transform="translate(83,28)"/>
<path d="M0 0 C3.13168037 0.70769289 6.24397702 0.85109978 9.4453125 1.05859375 C10.70859375 1.14238281 11.971875 1.22617188 13.2734375 1.3125 C14.23765625 1.37308594 15.201875 1.43367188 16.1953125 1.49609375 C16.1953125 2.15609375 16.1953125 2.81609375 16.1953125 3.49609375 C5.6353125 3.49609375 -4.9246875 3.49609375 -15.8046875 3.49609375 C-10.36370664 -1.94488711 -7.15897506 -1.9989346 0 0 Z " fill="#32204F" transform="translate(68.8046875,100.50390625)"/>
<path d="M0 0 C-0.33 0.66 -0.66 1.32 -1 2 C-0.01 2.99 0.98 3.98 2 5 C-1.49087093 9.0042343 -3.64951939 10.62671065 -9 11 C-9.33 9.68 -9.66 8.36 -10 7 C-9.34 7 -8.68 7 -8 7 C-8 5.68 -8 4.36 -8 3 C-8.66 2.67 -9.32 2.34 -10 2 C-6.27511755 -0.66063032 -4.42132508 -1.38955931 0 0 Z " fill="#782B60" transform="translate(65,80)"/>
<path d="M0 0 C3.59367037 1.61348466 4.33687071 2.92374143 6.0625 6.375 C6.7225 7.035 7.3825 7.695 8.0625 8.375 C2.6175 8.87 2.6175 8.87 -2.9375 9.375 C-2.9375 8.385 -2.9375 7.395 -2.9375 6.375 C-4.2575 6.705 -5.5775 7.035 -6.9375 7.375 C-6.9375 6.715 -6.9375 6.055 -6.9375 5.375 C-7.5975 5.045 -8.2575 4.715 -8.9375 4.375 C-3.90050512 -0.82989471 -3.90050512 -0.82989471 0 0 Z " fill="#FAF7F8" transform="translate(100.9375,88.625)"/>
<path d="M0 0 C2 2 2 2 2.125 5.125 C2.08375 6.07375 2.0425 7.0225 2 8 C2.66 8.33 3.32 8.66 4 9 C3.58427734 9.80050781 3.58427734 9.80050781 3.16015625 10.6171875 C0.33213596 16.43425414 -0.73088945 21.5548024 -1 28 C1.31 28 3.62 28 6 28 C4.71186768 30.57626463 3.69933926 31.07451225 1 32 C-1.1875 31.4375 -1.1875 31.4375 -3 30 C-4.13273887 26.20664191 -3.89451719 23.39630469 -3.0625 19.5625 C-1.49326647 12.67031279 -1.49326647 12.67031279 -3 6 C-2.125 4 -2.125 4 -1 2 C-0.67 1.34 -0.34 0.68 0 0 Z " fill="#271C47" transform="translate(72,58)"/>
<path d="M0 0 C1.5 1.375 1.5 1.375 3 3 C3 3.66 3 4.32 3 5 C2.01 5 1.02 5 0 5 C-0.33 6.32 -0.66 7.64 -1 9 C0.98 9.495 0.98 9.495 3 10 C3.66 12.31 4.32 14.62 5 17 C3.02 17.99 3.02 17.99 1 19 C1.33 20.65 1.66 22.3 2 24 C1.34 23.67 0.68 23.34 0 23 C0.33 22.34 0.66 21.68 1 21 C0.01 21 -0.98 21 -2 21 C-2.05390357 18.06225537 -2.0936255 15.12549768 -2.125 12.1875 C-2.14175781 11.35412109 -2.15851562 10.52074219 -2.17578125 9.66210938 C-2.18222656 8.85966797 -2.18867187 8.05722656 -2.1953125 7.23046875 C-2.20578613 6.49207764 -2.21625977 5.75368652 -2.22705078 4.99291992 C-2 3 -2 3 0 0 Z " fill="#EC7F74" transform="translate(55,63)"/>
<path d="M0 0 C11.02446483 -0.57798165 11.02446483 -0.57798165 15 3 C15 3.99 15 4.98 15 6 C14.01 6 13.02 6 12 6 C11.34 6.66 10.68 7.32 10 8 C8.02 7.34 6.04 6.68 4 6 C4 5.34 4 4.68 4 4 C2.68 4 1.36 4 0 4 C-0.33 4.66 -0.66 5.32 -1 6 C-1.33 4.68 -1.66 3.36 -2 2 C-1.34 2 -0.68 2 0 2 C0 1.34 0 0.68 0 0 Z " fill="#5E5476" transform="translate(89,17)"/>
<path d="M0 0 C0.99 0.66 1.98 1.32 3 2 C4.32 2 5.64 2 7 2 C7.33 3.32 7.66 4.64 8 6 C7.01 6 6.02 6 5 6 C5.54226981 9.79588866 7.20127563 11.47211993 10 14 C3.25 13.125 3.25 13.125 1 12 C1 11.01 1 10.02 1 9 C-0.32 8.67 -1.64 8.34 -3 8 C-2.67 6.68 -2.34 5.36 -2 4 C-1.01 4 -0.02 4 1 4 C0.67 2.68 0.34 1.36 0 0 Z " fill="#DF3B6D" transform="translate(57,64)"/>
<path d="M0 0 C3.88714516 1.29571505 5.91195535 3.51992558 8 7 C7.62718085 12.09519499 5.02824822 14.96233571 2 19 C0.02 16.36 -1.96 13.72 -4 11 C-3.67 10.34 -3.34 9.68 -3 9 C-0.13275314 9.57344937 0.8614515 9.8614515 3 12 C4.0089034 7.76353233 4.0089034 7.76353233 3.0625 3.625 C2.711875 3.08875 2.36125 2.5525 2 2 C1.34 2 0.68 2 0 2 C0 1.34 0 0.68 0 0 Z " fill="#BC3675" transform="translate(65,49)"/>
<path d="M0 0 C1.05896484 0.04382813 2.11792969 0.08765625 3.20898438 0.1328125 C4.84770508 0.21015625 4.84770508 0.21015625 6.51953125 0.2890625 C8.12924805 0.35480469 8.12924805 0.35480469 9.77148438 0.421875 C16.64774702 0.72138553 23.48403741 1.22507448 30.33203125 1.9140625 C30.33203125 2.2440625 30.33203125 2.5740625 30.33203125 2.9140625 C16.47203125 2.9140625 2.61203125 2.9140625 -11.66796875 2.9140625 C-11.66796875 2.2540625 -11.66796875 1.5940625 -11.66796875 0.9140625 C-7.68535128 0.15333369 -4.048145 -0.17446226 0 0 Z " fill="#EAE4EB" transform="translate(48.66796875,103.0859375)"/>
<path d="M0 0 C3 1 3 1 4.6875 3.8125 C6 7 6 7 6 11 C6.66 11.33 7.32 11.66 8 12 C11 17.42307692 11 17.42307692 11 20 C10.01 20.33 9.02 20.66 8 21 C7.67 20.01 7.34 19.02 7 18 C6.01 18.33 5.02 18.66 4 19 C4.061875 17.989375 4.12375 16.97875 4.1875 15.9375 C3.94630807 10.87246942 2.67640794 6.92476467 -0.6875 3.0625 C-1.120625 2.711875 -1.55375 2.36125 -2 2 C-1.34 1.34 -0.68 0.68 0 0 Z " fill="#C0819E" transform="translate(69,48)"/>
<path d="M0 0 C-0.66 1.65 -1.32 3.3 -2 5 C-2.66 5 -3.32 5 -4 5 C-4 5.66 -4 6.32 -4 7 C-8.64849515 9.3992233 -12.91086074 9.19957409 -18 9 C-18 8.67 -18 8.34 -18 8 C-16.02 8 -14.04 8 -12 8 C-12 6.68 -12 5.36 -12 4 C-10.02 3.34 -8.04 2.68 -6 2 C-6 1.34 -6 0.68 -6 0 C-3 -1 -3 -1 0 0 Z " fill="#81B5C1" transform="translate(146,98)"/>
<path d="M0 0 C1.65 1.65 3.3 3.3 5 5 C6.32 4.34 7.64 3.68 9 3 C9 6.3 9 9.6 9 13 C8.01 13.495 8.01 13.495 7 14 C6.67 13.34 6.34 12.68 6 12 C5.01 12 4.02 12 3 12 C1.66018514 11.6937566 0.32488113 11.36548445 -1 11 C-0.67 9.68 -0.34 8.36 0 7 C0.99 7.33 1.98 7.66 3 8 C2.505 7.236875 2.01 6.47375 1.5 5.6875 C0 3 0 3 0 0 Z " fill="#9287A9" transform="translate(62,62)"/>
<path d="M0 0 C0 0.99 0 1.98 0 3 C0.73741634 6.62280804 0.73741634 6.62280804 2 10 C2.99 10.33 3.98 10.66 5 11 C5.33 11.99 5.66 12.98 6 14 C4.01432292 13.70703125 2.02864583 13.4140625 0.04296875 13.12109375 C-2.2025342 12.86095201 -2.2025342 12.86095201 -5 14 C-6.06287862 10.79700091 -5.96603992 9.01047549 -4.75 5.875 C-4.49734375 5.19179688 -4.2446875 4.50859375 -3.984375 3.8046875 C-3 2 -3 2 0 0 Z " fill="#B28797" transform="translate(89,40)"/>
<path d="M0 0 C-0.99 2.97 -1.98 5.94 -3 9 C-3.99 8.67 -4.98 8.34 -6 8 C-6.33 8.99 -6.66 9.98 -7 11 C-7.99 11.33 -8.98 11.66 -10 12 C-10 10.68 -10 9.36 -10 8 C-9.34 8 -8.68 8 -8 8 C-7.34 5.69 -6.68 3.38 -6 1 C-6.66 1 -7.32 1 -8 1 C-8 0.34 -8 -0.32 -8 -1 C-4.37673261 -2.2077558 -3.35853631 -1.54311128 0 0 Z " fill="#A693A5" transform="translate(106,40)"/>
<path d="M0 0 C3.89813317 1.29937772 5.96353803 3.52690668 8 7 C8.68230338 9.7341222 8.85328437 12.16349778 9 15 C8.01 15.66 7.02 16.32 6 17 C5.67 14.03 5.34 11.06 5 8 C3.35 8 1.7 8 0 8 C0.33 7.01 0.66 6.02 1 5 C0.01 4.67 -0.98 4.34 -2 4 C-1.34 2.68 -0.68 1.36 0 0 Z " fill="#627EA0" transform="translate(105,22)"/>
<path d="M0 0 C0.33 0 0.66 0 1 0 C1.63019694 10.97592998 1.63019694 10.97592998 -1 15.25 C-1.66 15.8275 -2.32 16.405 -3 17 C-3 16.34 -3 15.68 -3 15 C-4.32 15.33 -5.64 15.66 -7 16 C-6.34 14.35 -5.68 12.7 -5 11 C-4.34 11 -3.68 11 -3 11 C-2.15545644 7.62182575 -1.89155081 5.32534757 -3 2 C-2.34 2.33 -1.68 2.66 -1 3 C-0.67 2.01 -0.34 1.02 0 0 Z " fill="#C393A9" transform="translate(83,68)"/>
<path d="M0 0 C0.99 0.33 1.98 0.66 3 1 C2.505 1.639375 2.01 2.27875 1.5 2.9375 C-0.2426271 6.49536366 -0.18234814 8.69899355 -0.0390625 12.57421875 C0.02309432 16.43415729 -0.51417744 20.17414734 -1 24 C-3.67927341 19.98108988 -3.15601248 17.75838077 -3 13 C-3.33 13 -3.66 13 -4 13 C-4.45732667 7.28341664 -3.52273754 4.51350747 0 0 Z " fill="#744A5C" transform="translate(54,51)"/>
<path d="M0 0 C2.42581871 2.42581871 2.96355664 4.07433869 3.09765625 7.48046875 C3.08605469 8.37378906 3.07445313 9.26710938 3.0625 10.1875 C3.05347656 11.08855469 3.04445313 11.98960938 3.03515625 12.91796875 C3.02355469 13.60503906 3.01195313 14.29210937 3 15 C2.01 15.495 2.01 15.495 1 16 C1 13.69 1 11.38 1 9 C0.34 9 -0.32 9 -1 9 C-1.33 10.32 -1.66 11.64 -2 13 C-1.979375 11.865625 -1.95875 10.73125 -1.9375 9.5625 C-1.58422523 6.18424326 -1.58422523 6.18424326 -3 5 C-3 6.65 -3 8.3 -3 10 C-3.33 10 -3.66 10 -4 10 C-4 7.69 -4 5.38 -4 3 C-3.01 3.33 -2.02 3.66 -1 4 C-0.67 2.68 -0.34 1.36 0 0 Z " fill="#AC7592" transform="translate(91,57)"/>
<path d="M0 0 C0.66 1.32 1.32 2.64 2 4 C1.34 4 0.68 4 0 4 C-0.33 6.31 -0.66 8.62 -1 11 C-0.34 11.33 0.32 11.66 1 12 C-2.76624671 13.25541557 -4.37188934 12.37061958 -8 11 C-7.67 9.68 -7.34 8.36 -7 7 C-6.34 7 -5.68 7 -5 7 C-4.67 6.34 -4.34 5.68 -4 5 C-3.34 5 -2.68 5 -2 5 C-1.34 3.35 -0.68 1.7 0 0 Z " fill="#6F3A70" transform="translate(83,80)"/>
<path d="M0 0 C1.04220703 0.51820312 1.04220703 0.51820312 2.10546875 1.046875 C3.8125 2.25 3.8125 2.25 4.8125 5.25 C4.8125 6.24 4.8125 7.23 4.8125 8.25 C3.8225 8.58 2.8325 8.91 1.8125 9.25 C1.461875 8.486875 1.11125 7.72375 0.75 6.9375 C-1.84252364 3.34141882 -4.06197406 2.72896213 -8.1875 1.25 C-8.1875 0.59 -8.1875 -0.07 -8.1875 -0.75 C-4.79422434 -1.93955281 -3.16898385 -1.64097475 0 0 Z " fill="#C2B4C1" transform="translate(122.1875,91.75)"/>
<path d="M0 0 C0.33 0.99 0.66 1.98 1 3 C1.99 2.34 2.98 1.68 4 1 C4.99 1.33 5.98 1.66 7 2 C6.2884375 2.61875 6.2884375 2.61875 5.5625 3.25 C3.83733482 5.182185 3.43415125 6.48192275 3 9 C1.68 9 0.36 9 -1 9 C-3 6 -3 6 -3 3 C-2.34 3 -1.68 3 -1 3 C-0.67 2.01 -0.34 1.02 0 0 Z " fill="#34244F" transform="translate(83,51)"/>
<path d="M0 0 C0.66 0 1.32 0 2 0 C2.36256858 1.4562672 2.71479793 2.91511185 3.0625 4.375 C3.35833984 5.59316406 3.35833984 5.59316406 3.66015625 6.8359375 C4 9 4 9 3 11 C2.01 11 1.02 11 0 11 C0 11.66 0 12.32 0 13 C-0.66 13 -1.32 13 -2 13 C-1.34 8.71 -0.68 4.42 0 0 Z " fill="#DD8897" transform="translate(47,78)"/>
<path d="M0 0 C0.66 0.33 1.32 0.66 2 1 C1.88557539 2.60495567 1.75805306 4.20898119 1.625 5.8125 C1.55539063 6.70582031 1.48578125 7.59914063 1.4140625 8.51953125 C1 11 1 11 -1 14 C-1.66 14 -2.32 14 -3 14 C-3.08114106 12.22992286 -3.13925505 10.45877902 -3.1875 8.6875 C-3.22230469 7.70136719 -3.25710937 6.71523437 -3.29296875 5.69921875 C-3 3 -3 3 -1.48828125 1.14453125 C-0.99714844 0.76683594 -0.50601563 0.38914063 0 0 Z " fill="#B0AFB8" transform="translate(88,62)"/>
<path d="M0 0 C1.45922693 0.11409593 2.91740598 0.24165544 4.375 0.375 C5.59316406 0.47941406 5.59316406 0.47941406 6.8359375 0.5859375 C9 1 9 1 11 3 C6.67265609 5.22923777 3.71599818 4.92470553 -1 4 C-0.67 2.68 -0.34 1.36 0 0 Z " fill="#4A3655" transform="translate(90,101)"/>
<path d="M0 0 C0 1.65 0 3.3 0 5 C-1.98 5.99 -1.98 5.99 -4 7 C-4.33 6.01 -4.66 5.02 -5 4 C-5.99 5.485 -5.99 5.485 -7 7 C-7.99 7 -8.98 7 -10 7 C-9.67 5.35 -9.34 3.7 -9 2 C-2.25 0 -2.25 0 0 0 Z " fill="#7B4E6B" transform="translate(90,31)"/>
<path d="M0 0 C0.99 0.99 1.98 1.98 3 3 C2.3125 4.9375 2.3125 4.9375 1 7 C-1.625 7.75 -1.625 7.75 -4 8 C-4.25 5.6875 -4.25 5.6875 -4 3 C-2 1.1875 -2 1.1875 0 0 Z " fill="#D06472" transform="translate(48,96)"/>
<path d="M0 0 C1.39712274 1.95597184 2.73779907 3.95436401 4 6 C2.02 6 0.04 6 -2 6 C-2 5.34 -2 4.68 -2 4 C-3.65 3.67 -5.3 3.34 -7 3 C-6.67 2.01 -6.34 1.02 -6 0 C-3 -1 -3 -1 0 0 Z " fill="#A593A4" transform="translate(116,96)"/>
<path d="M0 0 C0.33 0 0.66 0 1 0 C1.08333357 4.8333472 0.95261487 9.23692563 0 14 C-0.99 13.67 -1.98 13.34 -3 13 C-4.31223496 9.06329512 -3.24296256 6.87511856 -2 3 C-1.34 3 -0.68 3 0 3 C0 2.01 0 1.02 0 0 Z " fill="#B495AE" transform="translate(86,79)"/>
<path d="M0 0 C2.0625 0.1875 2.0625 0.1875 4 1 C4.33 1.99 4.66 2.98 5 4 C0.25 8 0.25 8 -2 8 C-2 7.01 -2 6.02 -2 5 C-2.66 4.67 -3.32 4.34 -4 4 C-2.66666667 2.66666667 -1.33333333 1.33333333 0 0 Z " fill="#836384" transform="translate(62,82)"/>
<path d="M0 0 C1.98 0.66 3.96 1.32 6 2 C5.95875 2.94875 5.9175 3.8975 5.875 4.875 C5.65026182 8.10244856 5.65026182 8.10244856 8 10 C7.01 10.33 6.02 10.66 5 11 C4.01 9.35 3.02 7.7 2 6 C1.01 6.495 1.01 6.495 0 7 C0 4.69 0 2.38 0 0 Z " fill="#BD6281" transform="translate(50,82)"/>
<path d="M0 0 C0.99 0.66 1.98 1.32 3 2 C4.32 2 5.64 2 7 2 C7.33 3.32 7.66 4.64 8 6 C6.02 6.33 4.04 6.66 2 7 C2 6.34 2 5.68 2 5 C0.68 5.33 -0.64 5.66 -2 6 C-2 5.34 -2 4.68 -2 4 C-1.01 4 -0.02 4 1 4 C0.67 2.68 0.34 1.36 0 0 Z " fill="#EA436C" transform="translate(57,64)"/>
<path d="M0 0 C0.33 0.99 0.66 1.98 1 3 C1.99 3 2.98 3 4 3 C3.67 3.66 3.34 4.32 3 5 C2.01 5 1.02 5 0 5 C-0.99 7.31 -1.98 9.62 -3 12 C-3.33 11.34 -3.66 10.68 -4 10 C-4.66 9.67 -5.32 9.34 -6 9 C-5.67 8.34 -5.34 7.68 -5 7 C-4.34 7 -3.68 7 -3 7 C-3.33 5.68 -3.66 4.36 -4 3 C-2.68 2.01 -1.36 1.02 0 0 Z " fill="#E2ADA2" transform="translate(59,47)"/>
<path d="M0 0 C0.66 0 1.32 0 2 0 C2 0.66 2 1.32 2 2 C3.98 2 5.96 2 8 2 C8 2.99 8 3.98 8 5 C5.36 5.33 2.72 5.66 0 6 C0 5.34 0 4.68 0 4 C-0.66 3.67 -1.32 3.34 -2 3 C-1.34 2.01 -0.68 1.02 0 0 Z " fill="#B091A1" transform="translate(94,90)"/>
<path d="M0 0 C0.33 0.99 0.66 1.98 1 3 C-0.4375 5.6875 -0.4375 5.6875 -2 8 C-3.65 7.67 -5.3 7.34 -7 7 C-7 5.68 -7 4.36 -7 3 C-4 2 -4 2 -2 2 C-1.34 1.34 -0.68 0.68 0 0 Z " fill="#F9F0ED" transform="translate(84,37)"/>
<path d="M0 0 C0.66 0 1.32 0 2 0 C1.33989524 2.84550012 0.48275034 5.52325999 -0.5625 8.25 C-0.83191406 8.95640625 -1.10132813 9.6628125 -1.37890625 10.390625 C-1.58386719 10.92171875 -1.78882813 11.4528125 -2 12 C-2.99 12 -3.98 12 -5 12 C-4.42365861 7.24518354 -2.44931479 4.02951788 0 0 Z " fill="#7E7287" transform="translate(137,81)"/>
<path d="M0 0 C0.33 0.66 0.66 1.32 1 2 C1.99 1.67 2.98 1.34 4 1 C4 4 4 4 3 7 C0.36 6.67 -2.28 6.34 -5 6 C-5 5.34 -5 4.68 -5 4 C-4.34 4 -3.68 4 -3 4 C-2.67 3.34 -2.34 2.68 -2 2 C-2 2.66 -2 3.32 -2 4 C-1.34 3.67 -0.68 3.34 0 3 C0 2.01 0 1.02 0 0 Z " fill="#3D3957" transform="translate(126,97)"/>
<path d="M0 0 C1.98 1.65 3.96 3.3 6 5 C5.01 5.33 4.02 5.66 3 6 C2.67 6.66 2.34 7.32 2 8 C0.35636866 8.72159424 -1.31050386 9.39351421 -3 10 C-2.01 6.7 -1.02 3.4 0 0 Z " fill="#221B45" transform="translate(89,79)"/>
<path d="M0 0 C0.99 1.32 1.98 2.64 3 4 C2.01 5.32 1.02 6.64 0 8 C-1.32 7.67 -2.64 7.34 -4 7 C-3.67 5.02 -3.34 3.04 -3 1 C-2.01 0.67 -1.02 0.34 0 0 Z " fill="#89C6CD" transform="translate(79,71)"/>
<path d="M0 0 C3.88714516 1.29571505 5.91195535 3.51992558 8 7 C7.6875 9.75 7.6875 9.75 7 12 C6.01 11.67 5.02 11.34 4 11 C4.04125 10.2575 4.0825 9.515 4.125 8.75 C3.99601866 5.91241048 3.42948778 4.41226062 2 2 C1.34 2 0.68 2 0 2 C0 1.34 0 0.68 0 0 Z " fill="#783F65" transform="translate(65,49)"/>
<path d="M0 0 C6.27 0 12.54 0 19 0 C19 0.99 19 1.98 19 3 C17.35 3 15.7 3 14 3 C14 2.34 14 1.68 14 1 C9.38 1 4.76 1 0 1 C0 0.67 0 0.34 0 0 Z " fill="#E5B9C3" transform="translate(71,101)"/>
<path d="M0 0 C1.53166168 4.08443115 0.63081652 7.79455657 0 12 C-0.66 12 -1.32 12 -2 12 C-3.02375082 7.59787148 -3.08258987 5.04948031 -1 1 C-0.67 0.67 -0.34 0.34 0 0 Z " fill="#CF7885" transform="translate(51,63)"/>
<path d="M0 0 C3 1 3 1 4.75 3.875 C6 7 6 7 5 10 C2.03595495 7.19195732 -0.44499019 4.81684226 -2 1 C-1.34 0.67 -0.68 0.34 0 0 Z " fill="#A7BAC2" transform="translate(69,48)"/>
<path d="M0 0 C0.66 0 1.32 0 2 0 C2 1.98 2 3.96 2 6 C4.31 6 6.62 6 9 6 C7.71186768 8.57626463 6.69933926 9.07451225 4 10 C1.8125 9.4375 1.8125 9.4375 0 8 C-1.09809194 4.70572419 -1.11196276 3.33588828 0 0 Z " fill="#211A43" transform="translate(69,80)"/>
<path d="M0 0 C0.33 0 0.66 0 1 0 C1 2.97 1 5.94 1 9 C0.34 9 -0.32 9 -1 9 C-1 9.99 -1 10.98 -1 12 C-1.66 12 -2.32 12 -3 12 C-3.34833144 7.12335991 -2.41685712 4.22949995 0 0 Z " fill="#AC3A7C" transform="translate(75,67)"/>
<path d="M0 0 C0.99 0.33 1.98 0.66 3 1 C4.18519265 3.43276386 5 5.28017286 5 8 C5.66 8.33 6.32 8.66 7 9 C4.6875 8.9375 4.6875 8.9375 2 8 C0.1875 4.4375 0.1875 4.4375 -1 1 C-0.67 0.67 -0.34 0.34 0 0 Z " fill="#702C66" transform="translate(72,47)"/>
<path d="M0 0 C0.66 0.66 1.32 1.32 2 2 C1.96712417 4.72869407 1.43602229 7.2966618 1 10 C-0.32 9.34 -1.64 8.68 -3 8 C-2.25 2.25 -2.25 2.25 0 0 Z " fill="#3E2251" transform="translate(72,58)"/>
<path d="M0 0 C0.99 0.33 1.98 0.66 3 1 C3.66 4.3 4.32 7.6 5 11 C4.01 11.66 3.02 12.32 2 13 C1.93941406 12.22914062 1.87882812 11.45828125 1.81640625 10.6640625 C1.73261719 9.66117188 1.64882812 8.65828125 1.5625 7.625 C1.48128906 6.62726562 1.40007812 5.62953125 1.31640625 4.6015625 C1.15034374 2.02072387 1.15034374 2.02072387 0 0 Z " fill="#AAABBF" transform="translate(109,26)"/>
<path d="M0 0 C0 1.98 0 3.96 0 6 C-1.32 6.33 -2.64 6.66 -4 7 C-4.66 5.68 -5.32 4.36 -6 3 C-1.125 0 -1.125 0 0 0 Z " fill="#E4D7D7" transform="translate(85,43)"/>
<path d="M0 0 C1.76923828 0.01353516 1.76923828 0.01353516 3.57421875 0.02734375 C4.47785156 0.03894531 5.38148437 0.05054687 6.3125 0.0625 C6.6425 0.7225 6.9725 1.3825 7.3125 2.0625 C-1.1025 2.5575 -1.1025 2.5575 -9.6875 3.0625 C-9.6875 2.4025 -9.6875 1.7425 -9.6875 1.0625 C-6.26517028 -0.07827657 -3.60076783 -0.03565117 0 0 Z " fill="#2F284E" transform="translate(111.6875,100.9375)"/>
<path d="M0 0 C1.5 1.375 1.5 1.375 3 3 C3 3.66 3 4.32 3 5 C2.01 5 1.02 5 0 5 C0 6.98 0 8.96 0 11 C-0.66 11 -1.32 11 -2 11 C-2.25 3.375 -2.25 3.375 0 0 Z " fill="#F7AF8F" transform="translate(55,63)"/>
<path d="M0 0 C2.00720923 0.28674418 4.0085944 0.61866701 6 1 C5.67 1.99 5.34 2.98 5 4 C3.68 4 2.36 4 1 4 C0.67 4.66 0.34 5.32 0 6 C-0.38218767 4.34385343 -0.71395102 2.67542976 -1 1 C-0.67 0.67 -0.34 0.34 0 0 Z " fill="#F6EBE7" transform="translate(56,92)"/>
<path d="M0 0 C0.94875 0.350625 1.8975 0.70125 2.875 1.0625 C1.885 2.5475 1.885 2.5475 0.875 4.0625 C-2.095 3.5675 -2.095 3.5675 -5.125 3.0625 C-5.125 2.0725 -5.125 1.0825 -5.125 0.0625 C-3.125 -0.9375 -3.125 -0.9375 0 0 Z " fill="#E9E6E9" transform="translate(101.125,88.9375)"/>
<path d="M0 0 C0.99 0.33 1.98 0.66 3 1 C4.1875 3.5625 4.1875 3.5625 5 6 C3.02 6.33 1.04 6.66 -1 7 C-1 5.68 -1 4.36 -1 3 C-1.33 2.34 -1.66 1.68 -2 1 C-1.34 0.67 -0.68 0.34 0 0 Z " fill="#B2B6CA" transform="translate(95,81)"/>
<path d="M0 0 C0.99 0.33 1.98 0.66 3 1 C3.33 3.31 3.66 5.62 4 8 C3.01 7.67 2.02 7.34 1 7 C1 6.01 1 5.02 1 4 C-0.32 3.34 -1.64 2.68 -3 2 C-2.01 2 -1.02 2 0 2 C0 1.34 0 0.68 0 0 Z " fill="#8D9CAE" transform="translate(65,79)"/>
<path d="M0 0 C0.33 0 0.66 0 1 0 C1 2.64 1 5.28 1 8 C1.99 8 2.98 8 4 8 C3.67 8.99 3.34 9.98 3 11 C3 10.34 3 9.68 3 9 C1.68 9 0.36 9 -1 9 C-1.33 9.66 -1.66 10.32 -2 11 C-2.19622241 6.78121808 -1.80230168 3.82989106 0 0 Z " fill="#CBB9C2" transform="translate(90,66)"/>
<path d="M0 0 C0.99 0.33 1.98 0.66 3 1 C3 1.66 3 2.32 3 3 C3.66 3 4.32 3 5 3 C4.67 4.98 4.34 6.96 4 9 C3.01 8.67 2.02 8.34 1 8 C0.67 5.36 0.34 2.72 0 0 Z " fill="#FBF7F9" transform="translate(95,38)"/>
<path d="M0 0 C3.33523252 1.38009621 5.18607951 2.84950652 7 6 C6.67 6.99 6.34 7.98 6 9 C5.401875 8.175 4.80375 7.35 4.1875 6.5 C3.465625 5.675 2.74375 4.85 2 4 C1.01 4 0.02 4 -1 4 C-0.67 2.68 -0.34 1.36 0 0 Z " fill="#D9C1C6" transform="translate(101,30)"/>
<path d="M0 0 C0.33 0.66 0.66 1.32 1 2 C1.66 2.33 2.32 2.66 3 3 C1.625 5 1.625 5 0 7 C-0.66 7 -1.32 7 -2 7 C-2.66 5.02 -3.32 3.04 -4 1 C-2.68 0.67 -1.36 0.34 0 0 Z " fill="#543A6E" transform="translate(94,30)"/>
<path d="M0 0 C0 0.66 0 1.32 0 2 C-4.64849515 4.3992233 -8.91086074 4.19957409 -14 4 C-14 3.67 -14 3.34 -14 3 C-12.02 3 -10.04 3 -8 3 C-8 2.34 -8 1.68 -8 1 C-2.25 0 -2.25 0 0 0 Z " fill="#527B95" transform="translate(142,103)"/>
<path d="M0 0 C1.32 0.66 2.64 1.32 4 2 C4 1.34 4 0.68 4 0 C4.66 0.33 5.32 0.66 6 1 C4.68 2.65 3.36 4.3 2 6 C2 5.34 2 4.68 2 4 C0.68 4.33 -0.64 4.66 -2 5 C-1.34 3.35 -0.68 1.7 0 0 Z " fill="#9BA4B3" transform="translate(78,79)"/>
<path d="M0 0 C0.99 0 1.98 0 3 0 C3.33 1.65 3.66 3.3 4 5 C4.66 5 5.32 5 6 5 C5.67 5.99 5.34 6.98 5 8 C1.125 5.375 1.125 5.375 0 2 C0 1.34 0 0.68 0 0 Z " fill="#F1496A" transform="translate(63,54)"/>
<path d="M0 0 C2.78388975 1.70625501 3.85384206 2.47626739 4.75 5.6875 C4.8325 6.450625 4.915 7.21375 5 8 C3.02 7.01 1.04 6.02 -1 5 C-0.67 3.35 -0.34 1.7 0 0 Z " fill="#F8F5F5" transform="translate(102,33)"/>
<path d="M0 0 C0.66 0.99 1.32 1.98 2 3 C5.06556598 3.73343428 5.06556598 3.73343428 8 4 C8 4.33 8 4.66 8 5 C6.741875 5.020625 5.48375 5.04125 4.1875 5.0625 C3.47980469 5.07410156 2.77210937 5.08570312 2.04296875 5.09765625 C0 5 0 5 -3 4 C-2.67 3.01 -2.34 2.02 -2 1 C-1.34 0.67 -0.68 0.34 0 0 Z " fill="#E8D6D6" transform="translate(96,97)"/>
<path d="M0 0 C0 0.99 0 1.98 0 3 C-2.38564077 2.42415568 -4.66682784 1.77772405 -7 1 C-7 0.34 -7 -0.32 -7 -1 C-3.51418144 -2.2020064 -3.32007656 -2.21338437 0 0 Z " fill="#CCBEC7" transform="translate(121,92)"/>
<path d="M0 0 C0.66 0.33 1.32 0.66 2 1 C1.67 5.29 1.34 9.58 1 14 C-1.46270288 10.30594568 -1.22985417 8.36722928 -1 4 C-0.5 1.5625 -0.5 1.5625 0 0 Z " fill="#47264D" transform="translate(52,61)"/>
<path d="M0 0 C5.94 0.99 5.94 0.99 12 2 C7.8204355 4.78637633 5.85331323 3.79562512 1 3 C0.67 2.01 0.34 1.02 0 0 Z " fill="#CC8A99" transform="translate(57,96)"/>
<path d="M0 0 C0.66 0 1.32 0 2 0 C1.37240135 2.92879371 0.41377341 5.36095629 -1 8 C-1.66 8 -2.32 8 -3 8 C-2.45276317 4.62537285 -1.9451 2.91765 0 0 Z " fill="#6D6274" transform="translate(141,72)"/>
<path d="M0 0 C2.375 0.1875 2.375 0.1875 5 1 C6.3125 3.5625 6.3125 3.5625 7 6 C4.69 5.34 2.38 4.68 0 4 C0 2.68 0 1.36 0 0 Z " fill="#9B5488" transform="translate(61,69)"/>
<path d="M0 0 C0.33 0.99 0.66 1.98 1 3 C-0.65 3 -2.3 3 -4 3 C-4 3.66 -4 4.32 -4 5 C-4.99 5 -5.98 5 -7 5 C-7 4.01 -7 3.02 -7 2 C-2.25 0 -2.25 0 0 0 Z " fill="#D3B8AE" transform="translate(68,44)"/>
<path d="M0 0 C1.65 0.33 3.3 0.66 5 1 C4.67 1.99 4.34 2.98 4 4 C2.68 4 1.36 4 0 4 C-0.99 4.33 -1.98 4.66 -3 5 C-3 4.34 -3 3.68 -3 3 C-2.34 3 -1.68 3 -1 3 C-0.67 2.01 -0.34 1.02 0 0 Z " fill="#EA6086" transform="translate(48,91)"/>
<path d="M0 0 C0.33 1.32 0.66 2.64 1 4 C0.21625 4.12375 -0.5675 4.2475 -1.375 4.375 C-4.14057822 4.79117993 -4.14057822 4.79117993 -6 7 C-5.8125 4.625 -5.8125 4.625 -5 2 C-2.4375 0.6875 -2.4375 0.6875 0 0 Z " fill="#492C5E" transform="translate(52,87)"/>
<path d="M0 0 C0.6875 1.75 0.6875 1.75 1 4 C-0.4375 6.25 -0.4375 6.25 -2 8 C-2.33 5.69 -2.66 3.38 -3 1 C-2.01 0.67 -1.02 0.34 0 0 Z " fill="#C4597D" transform="translate(69,60)"/>
<path d="M0 0 C0.66 0.66 1.32 1.32 2 2 C0.02 3.32 -1.96 4.64 -4 6 C-4.66 5.67 -5.32 5.34 -6 5 C-5.67 4.01 -5.34 3.02 -5 2 C-2.4375 0.8125 -2.4375 0.8125 0 0 Z " fill="#913880" transform="translate(57,98)"/>
<path d="M0 0 C0.99 0.99 1.98 1.98 3 3 C2.67 3.66 2.34 4.32 2 5 C1.34 3.35 0.68 1.7 0 0 Z M-4 2 C-2.02 2.99 -0.04 3.98 2 5 C0.68 5.33 -0.64 5.66 -2 6 C-2.66 4.68 -3.32 3.36 -4 2 Z " fill="#7FC2C8" transform="translate(66,70)"/>
<path d="M0 0 C2.475 0.99 2.475 0.99 5 2 C4.67 3.65 4.34 5.3 4 7 C3.34 7 2.68 7 2 7 C1.34 4.69 0.68 2.38 0 0 Z " fill="#CF7597" transform="translate(65,52)"/>
<path d="M0 0 C2.475 0.99 2.475 0.99 5 2 C4.67 3.65 4.34 5.3 4 7 C2 5.1875 2 5.1875 0 3 C0 2.01 0 1.02 0 0 Z " fill="#E4CCD2" transform="translate(92,47)"/>
<path d="M0 0 C0.99 0.66 1.98 1.32 3 2 C2.34 3.65 1.68 5.3 1 7 C0.01 7 -0.98 7 -2 7 C-1.42415568 4.61435923 -0.77772405 2.33317216 0 0 Z " fill="#B46064" transform="translate(76,39)"/>
<path d="M0 0 C0.66 0 1.32 0 2 0 C2 1.65 2 3.3 2 5 C0.02 5.99 0.02 5.99 -2 7 C-1.125 2.25 -1.125 2.25 0 0 Z " fill="#A78B9C" transform="translate(88,31)"/>
<path d="M0 0 C3.65316671 1.24976756 4.78065836 1.67098753 7 5 C6.01 5.33 5.02 5.66 4 6 C4 5.34 4 4.68 4 4 C2.68 3.34 1.36 2.68 0 2 C0 1.34 0 0.68 0 0 Z " fill="#7E83A2" transform="translate(98,17)"/>
<path d="M0 0 C0.66 0.66 1.32 1.32 2 2 C1.625 5.625 1.625 5.625 1 9 C0.01 8.01 -0.98 7.02 -2 6 C-1.34 4.02 -0.68 2.04 0 0 Z " fill="#B6AFBB" transform="translate(83,59)"/>
<path d="M0 0 C0.33 0 0.66 0 1 0 C1 1.98 1 3.96 1 6 C0.01 6 -0.98 6 -2 6 C-2.33 4.68 -2.66 3.36 -3 2 C-2.01 2 -1.02 2 0 2 C0 1.34 0 0.68 0 0 Z " fill="#EF426B" transform="translate(77,44)"/>
</svg>
